<?xml version="1.0" encoding="utf-8"?>
<!-- Generator: Adobe Illustrator 25.2.0, SVG Export Plug-In . SVG Version: 6.00 Build 0)  -->
<svg version="1.1" id="Layer_1" xmlns="http://www.w3.org/2000/svg" xmlns:xlink="http://www.w3.org/1999/xlink" x="0px" y="0px"
	 viewBox="0 0 553.7080078 111.3619995" style="enable-background:new 0 0 553.7080078 111.3619995;" xml:space="preserve">
<style type="text/css">
	.st0{fill:#FFFFFF;}
</style>
<g>
	<g>
		<polygon class="st0" points="99.1436157,62.1462402 102.876709,55.6808472 99.1436157,49.2147827 91.6774292,49.2147827 
			87.9443359,55.6808472 91.6774292,62.1462402 		"/>
		<polygon class="st0" points="91.6774292,69.1462402 87.635376,76.1469116 103.1846313,76.1469116 99.1436157,69.1462402 		"/>
		<polygon class="st0" points="73.7987671,59.1808472 81.5733032,72.6469727 85.6153564,65.6462402 81.8822021,59.1808472 		"/>
		<polygon class="st0" points="73.7987671,52.1808472 81.8822021,52.1808472 85.6153564,45.7148438 81.5732422,38.7145996 		"/>
		<polygon class="st0" points="91.6774292,42.2147827 99.1436157,42.2147827 103.1846924,35.2147827 87.6356812,35.2147827 		"/>
		<polygon class="st0" points="105.2057495,65.6464233 109.2467651,72.6466675 117.0216064,59.1808472 108.9388428,59.1808472 		"/>
		<path class="st0" d="M121.5864258,0H14.3924561C6.4437256,0,0,6.4437256,0,14.3924561v82.5770874
			c0,7.9487305,6.4437256,14.3924561,14.3924561,14.3924561h107.1939697c7.9487305,0,14.3924561-6.4437256,14.3924561-14.3924561
			V14.3924561C135.9788818,6.4437256,129.5351562,0,121.5864258,0z M126.520752,56.303772
			c-0.0089111,0.0513306-0.0184937,0.1020508-0.0300903,0.1525879c-0.0424805,0.1947021-0.1017456,0.3853149-0.177002,0.5698242
			c-0.0109863,0.0272217-0.0266724,0.0519409-0.0383301,0.0787964c-0.0479736,0.1112671-0.1015625,0.2200317-0.1606445,0.3258667
			l-13.8372803,23.9660034c-0.0612183,0.102356-0.1276245,0.2015991-0.1989136,0.2972412
			c-0.0187988,0.0258789-0.0335083,0.0535278-0.0529785,0.0790405c-0.1212769,0.1558228-0.2556763,0.3010254-0.4016113,0.434082
			c-0.0396118,0.0370483-0.0809937,0.0720825-0.1229858,0.1073608c-0.1564941,0.1351929-0.324646,0.2562256-0.5024414,0.3616943
			l-0.0020142,0.0015869c-0.0170898,0.0098877-0.0355835,0.0162964-0.0526733,0.026001
			c-0.1157227,0.0653687-0.2351074,0.1241455-0.3574829,0.1759644c-0.1142578,0.0459595-0.230835,0.0858154-0.3493042,0.1193237
			c-0.0273438,0.0079956-0.0529785,0.0196533-0.0803223,0.0270996c-0.2956543,0.0801392-0.6005249,0.1208496-0.9067993,0.1212158
			l-0.0106201-0.0006714H81.5805054l-0.0106201,0.0006714c-0.3062744-0.0003662-0.611145-0.0410767-0.9067993-0.1212158
			c-0.0272827-0.0074463-0.0529785-0.019104-0.0803223-0.0270996c-0.1184692-0.0335083-0.2350464-0.0733643-0.3493042-0.1193237
			c-0.1224365-0.0518188-0.2417603-0.1105957-0.3575439-0.1759644c-0.0170898-0.0097046-0.0355225-0.0161133-0.0526123-0.026001
			l-0.0020752-0.0015869c-0.1783447-0.1056519-0.3469849-0.2271118-0.5037842-0.362793
			c-0.0410156-0.034668-0.0813599-0.0690308-0.1206665-0.1053467c-0.1464844-0.133667-0.2813721-0.279541-0.4033203-0.4359741
			c-0.0184326-0.024231-0.0324707-0.0505981-0.0502319-0.0751953c-0.0721436-0.0964966-0.1392212-0.1966553-0.2009888-0.3001099
			L65.7160034,59.1808472H55.4942627l9.795166,16.9660034h4.5472412c1.9329834,0,3.5,1.5670166,3.5,3.5s-1.5670166,3.5-3.5,3.5
			h-6.5679932c-1.2503662-0.0001831-2.4057617-0.6672363-3.0310059-1.75L47.411438,59.1808472H37.1904297l9.795166,16.9660034
			h4.5465088c1.9329834,0,3.5,1.5670166,3.5,3.5s-1.5670166,3.5-3.5,3.5h-6.5672607
			c-1.2503662-0.0001831-2.4057007-0.6672363-3.0310059-1.75L29.107605,59.1808472H18.8858643l9.7952271,16.9660034h4.5471802
			c1.9329834,0,3.5,1.5670166,3.5,3.5s-1.5670166,3.5-3.5,3.5h-6.5679321c-1.2503662-0.0001831-2.4057007-0.6672363-3.0310059-1.75
			L9.7927856,57.4308472c-0.0592651-0.1056519-0.1127319-0.2144165-0.1603394-0.3258057
			c-0.0120239-0.0268555-0.02771-0.0516357-0.0390015-0.0788574c-0.0751953-0.1845093-0.1343384-0.3751221-0.1766968-0.5698242
			c-0.0115967-0.0505981-0.020874-0.1012573-0.0300903-0.1525879c-0.0748291-0.4119263-0.0748291-0.8339233,0-1.2458496
			c0.0092163-0.0513306,0.0184937-0.1020508,0.0300903-0.1525879c0.0423584-0.1947021,0.1015015-0.3853149,0.1766968-0.5698242
			c0.0113525-0.0272217,0.0269775-0.0519409,0.0390015-0.0788574c0.0476074-0.1113892,0.1010742-0.2201538,0.1603394-0.3258057
			l13.8366089-23.9660645c0.6252441-1.0828247,1.7806396-1.7498779,3.0310059-1.75h6.5679321c1.9329834,0,3.5,1.5669556,3.5,3.5
			c0,1.9329834-1.5670166,3.5-3.5,3.5h-4.5472412l-9.7952271,16.9660034H29.107666l12.8262329-22.2160034
			c0.6253052-1.0827637,1.7806396-1.7498169,3.0310059-1.75h6.5672607c1.9329834,0,3.5,1.5670166,3.5,3.5
			c0,1.9330444-1.5670166,3.5-3.5,3.5h-4.5465698l-9.795166,16.9660034H47.411438l12.8262329-22.2160034
			c0.6253052-1.0827637,1.7806396-1.7498169,3.0310059-1.75h6.5679932c1.9330444,0,3.5,1.5670166,3.5,3.5
			c0,1.9330444-1.5669556,3.5-3.5,3.5h-4.5472412l-9.795166,16.9660645h10.2217407l12.8262939-22.2160645
			c0.0617065-0.1036377,0.1289062-0.2039185,0.2012939-0.300415c0.017395-0.0244751,0.0317993-0.0507812,0.0499268-0.0748901
			c0.1218262-0.1564941,0.2567139-0.3024292,0.4032593-0.4360962c0.0390015-0.0361938,0.0793457-0.0706177,0.1203613-0.1052246
			c0.1569824-0.1356201,0.3256836-0.2570801,0.5041504-0.362854l0.0020142-0.0015869l0.0020142-0.0008545
			c0.1808472-0.1017456,0.3703613-0.1871338,0.5663452-0.255188c0.0509644-0.0183716,0.1011963-0.0361328,0.1524658-0.052002
			c0.1884766-0.0599365,0.3817139-0.1037598,0.5776367-0.1309204c0.0321045-0.0040894,0.06427-0.0030518,0.0963745-0.0063477
			c0.1179199-0.013916,0.2364502-0.0217896,0.3551636-0.0235596h27.6732178c0.1134644,0,0.2252808,0.0115356,0.3370361,0.0223999
			c0.0389404,0.0037842,0.0779419,0.0026245,0.1172485,0.0077515c0.1939087,0.0270386,0.3851929,0.0703735,0.5717773,0.1296387
			c0.0526733,0.0162354,0.104248,0.0345459,0.1565552,0.0533447c0.1956177,0.0681152,0.3848267,0.1534424,0.5653687,0.2549438
			l0.0019531,0.0008545l0.0020142,0.0015869c0.1784668,0.1057739,0.347168,0.2272339,0.5041504,0.362854
			c0.0410156,0.0346069,0.0812988,0.0689697,0.1203003,0.1052246c0.1465454,0.133667,0.2814941,0.2796021,0.4033203,0.4360962
			c0.0181274,0.0241089,0.0324707,0.050415,0.0499268,0.0748901c0.0723267,0.0964966,0.1395264,0.1967773,0.2012939,0.300415
			l13.8372803,23.9660034c0.059021,0.105835,0.1126709,0.2145386,0.1606445,0.3258057
			c0.0115967,0.0269165,0.0272827,0.0516357,0.038269,0.0788574c0.0752563,0.1845093,0.1345215,0.3751221,0.177002,0.5698242
			c0.0115967,0.0505981,0.0211792,0.1012573,0.0300903,0.1525879
			C126.5952148,55.4698486,126.5952148,55.8918457,126.520752,56.303772z"/>
		<polygon class="st0" points="105.2056885,45.7146606 108.9387817,52.1808472 117.0216064,52.1808472 109.2463989,38.7149658 		"/>
	</g>
	<path class="st0" d="M165.9788971,30.9818401h12.2792969v18.7492695h15.0726624V30.9818401h12.2792969V80.613678h-12.2792969
		V59.5844803H178.258194V80.613678h-12.2792969V30.9818401z"/>
	<path class="st0" d="M226.8631744,30.9818401h12.4265137l16.7637482,49.6318359h-12.4253235l-3.0890045-9.4117432H223.921402
		l-3.0147705,9.4117432h-10.7354126L226.8631744,30.9818401z M226.8631744,62.0846176h10.6612091l-3.3822021-10.4410019
		c-0.8177185-2.7869148-1.3836823-5.6415901-1.6910858-8.5296783h-0.2944183
		c-0.418045,2.8573341-1.0322571,5.6825027-1.8383026,8.4554787L226.8631744,62.0846176z"/>
	<path class="st0" d="M260.614502,30.9818401h20.4403687c9.7061462,0,16.2503357,4.7058697,16.2503357,13.8231907
		c0.0547485,6.2183113-4.0306091,11.7151337-10.0005798,13.4557686c1.4546204,1.3222542,2.6298523,2.9223137,3.4563904,4.7058716
		c2.0585327,4.1912422,3.4563904,8.8229103,7.7936401,8.8229103c0.6783752-0.0037994,1.3506775-0.128212,1.9855042-0.3674316
		l-0.9549866,8.7499008c-1.6151733,0.390152-3.2664185,0.6119537-4.9272766,0.6618423
		c-5.8823547,0-9.2645264-2.2787323-12.7197266-10.1465759c-1.4708862-3.5294037-3.5293884-9.7061501-6.2510071-9.7061501
		h-2.7933655V80.613678H260.614502V30.9818401z M272.8937988,39.878952v12.205101h4.411438
		c3.5294189,0,7.6464539-1.1022682,7.6464539-6.3969994c0-4.3384399-2.7933655-5.8081284-6.1755371-5.8081284L272.8937988,39.878952
		z"/>
	<path class="st0" d="M299.6605225,30.9818401h12.7197266l9.3387451,28.0137997
		c0.8198547,2.9329453,1.3612061,5.9366875,1.6169128,8.9713097h0.2944336
		c0.2935181-3.0107346,0.8595276-5.9886398,1.6911011-8.8971024l9.1915283-28.0879993h11.1028442L328.6305847,80.613678H316.718689
		L299.6605225,30.9818401z"/>
	<path class="st0" d="M350.1026001,30.9818401h32.8668823v9.1173191H362.381897v10.6612091h17.2796021v9.1185188H362.381897
		v11.6174736h21.3236084v9.1173172h-33.6029053V30.9818401z"/>
	<path class="st0" d="M398.3389282,64.2903366c-0.8832397,3.9710007,0.6618347,8.529686,8.4555054,8.529686
		c5.1474915,0,6.9115906-2.0597076,6.9115906-4.7800674c0-4.1170006-4.1170044-5.1463013-8.9701233-6.9115982
		c-7.2802124-2.5001411-16.2503357-6.029541-16.2503357-16.3963318c0-9.2657318,7.1329956-14.9266586,19.2651062-14.63344
		c14.8524475,0.2944202,19.0437012,9.0443211,17.4255981,16.6177502l-11.25,1.0292587
		c0.7359924-5.7351303-1.3224792-8.9701118-7.1318054-8.9701118c-3.8968201,0-6.1025391,1.4708786-6.1025391,4.5586586
		c0,4.1182289,3.9698181,5.3677101,8.8229065,7.0587997c7.5004272,2.5001411,16.3975525,5.5149193,16.3975525,15.808712
		c0,8.8971024-6.6183777,15.2940674-19.5595093,15.2940674c-12.1320801,0-20.4403687-5.5879211-18.7492676-16.1761322
		L398.3389282,64.2903366z"/>
	<path class="st0" d="M428.9270935,30.9818401h39.6324768v9.1173191h-13.8232117V80.613678h-12.2792969V40.0991592H428.927063
		L428.9270935,30.9818401z"/>
	<path class="st0" d="M473.78125,30.9818401h32.8668823v9.1173191h-20.5875854v10.6612091h17.2796021v9.1185188h-17.2796021
		v11.6174736h21.3236084v9.1173172H473.78125V30.9818401z"/>
	<path class="st0" d="M513.7823486,30.9818401h20.4403687c9.7061768,0,16.2503052,4.7058697,16.2503052,13.8231907
		c0.0547485,6.2179337-4.0299683,11.7145691-9.9993896,13.4557686c1.4539185,1.322628,2.6286621,2.9226151,3.4552002,4.7058716
		c2.0585327,4.1912422,3.4564209,8.8229103,7.7936401,8.8229103c0.6784058-0.0037918,1.350708-0.1282043,1.9855347-0.3674316
		l-0.9550171,8.7499008c-1.6151733,0.390152-3.2664185,0.6119537-4.9273071,0.6618423
		c-5.8823242,0-9.2645264-2.2787323-12.7197266-10.1465759c-1.4708862-3.5294037-3.5294189-9.7061501-6.2509766-9.7061501h-2.793335
		V80.613678h-12.2792969V30.9818401z M526.0616455,39.878952v12.205101h4.411438c3.5294189,0,7.647644-1.1022682,7.647644-6.3969994
		c0-4.3384399-2.7945557-5.8081284-6.1767578-5.8081284L526.0616455,39.878952z"/>
</g>
</svg>
